<svg aria-hidden="true" style="position: absolute; width: 0; height: 0; overflow: hidden;" version="1.1" xmlns="http://www.w3.org/2000/svg" xmlns:xlink="http://www.w3.org/1999/xlink">
<defs>
<symbol id="icon-add-cart" viewBox="0 0 32 32">
<path d="M14.667 14.667v-5.333c0-0.736 0.597-1.333 1.333-1.333s1.333 0.597 1.333 1.333v5.333h5.333c0.736 0 1.333 0.597 1.333 1.333s-0.597 1.333-1.333 1.333h-5.333v5.333c0 0.736-0.597 1.333-1.333 1.333s-1.333-0.597-1.333-1.333v-5.333h-5.333c-0.736 0-1.333-0.597-1.333-1.333s0.597-1.333 1.333-1.333h5.333zM16 2.667c-7.364 0-13.333 5.97-13.333 13.333s5.97 13.333 13.333 13.333c7.364 0 13.333-5.97 13.333-13.333s-5.97-13.333-13.333-13.333zM32 16c0 8.837-7.163 16-16 16s-16-7.163-16-16c0-8.837 7.163-16 16-16s16 7.163 16 16z"></path>
</symbol>

<symbol id="icon-minus" viewBox="0 0 32 32">
<path d="M16 28c-2.373 0-4.693-0.704-6.667-2.022s-3.511-3.193-4.42-5.385c-0.908-2.193-1.146-4.606-0.683-6.933s1.606-4.466 3.284-6.144 3.816-2.821 6.144-3.284c2.328-0.463 4.741-0.225 6.933 0.683s4.067 2.446 5.385 4.42c1.319 1.973 2.022 4.293 2.022 6.667 0 3.183-1.264 6.235-3.515 8.485s-5.303 3.515-8.485 3.515zM16 6c-1.978 0-3.911 0.587-5.556 1.685s-2.926 2.661-3.683 4.488c-0.757 1.827-0.955 3.838-0.569 5.778s1.338 3.722 2.737 5.12 3.18 2.351 5.12 2.737c1.94 0.386 3.951 0.188 5.778-0.569s3.389-2.039 4.488-3.683c1.099-1.645 1.685-3.578 1.685-5.556 0-2.652-1.054-5.196-2.929-7.071s-4.419-2.929-7.071-2.929z"></path>
<path d="M21.333 17h-10.667c-0.265 0-0.52-0.105-0.707-0.293s-0.293-0.442-0.293-0.707 0.105-0.52 0.293-0.707c0.188-0.188 0.442-0.293 0.707-0.293h10.667c0.265 0 0.52 0.105 0.707 0.293s0.293 0.442 0.293 0.707-0.105 0.52-0.293 0.707c-0.187 0.188-0.442 0.293-0.707 0.293z"></path>
</symbol>

<symbol id="icon-close" viewBox="0 0 32 32">
<path d="M13.374 11.96c-0.391-0.391-1.024-0.391-1.414 0s-0.391 1.024 0 1.414l2.626 2.626-2.626 2.626c-0.391 0.391-0.391 1.024 0 1.414s1.024 0.391 1.414 0l2.626-2.626 2.626 2.626c0.391 0.391 1.024 0.391 1.414 0s0.391-1.024 0-1.414l-2.626-2.626 2.626-2.626c0.391-0.39 0.391-1.024 0-1.414s-1.024-0.391-1.414 0l-2.626 2.626-2.626-2.626z"></path>
<path d="M16.077 1.667h-0.153c-3.078 0-5.49-0-7.372 0.253-1.926 0.259-3.446 0.799-4.639 1.993s-1.734 2.713-1.993 4.639c-0.253 1.882-0.253 4.294-0.253 7.372v0.153c0 3.078-0 5.49 0.253 7.372 0.259 1.926 0.799 3.446 1.993 4.639s2.713 1.733 4.639 1.993c1.882 0.253 4.294 0.253 7.372 0.253h0.153c3.078 0 5.49 0 7.372-0.253 1.926-0.259 3.446-0.799 4.639-1.993s1.733-2.713 1.993-4.639c0.253-1.882 0.253-4.294 0.253-7.372v-0.153c0-3.078 0-5.49-0.253-7.372-0.259-1.926-0.799-3.446-1.993-4.639s-2.713-1.734-4.639-1.993c-1.882-0.253-4.294-0.253-7.372-0.253zM5.326 5.326c0.76-0.76 1.787-1.195 3.492-1.425 1.733-0.233 4.011-0.235 7.182-0.235s5.449 0.002 7.182 0.235c1.705 0.229 2.732 0.665 3.492 1.425s1.195 1.787 1.425 3.492c0.233 1.733 0.235 4.011 0.235 7.182s-0.002 5.449-0.235 7.182c-0.229 1.705-0.665 2.732-1.425 3.492s-1.787 1.195-3.492 1.425c-1.733 0.233-4.011 0.235-7.182 0.235s-5.449-0.002-7.182-0.235c-1.705-0.229-2.732-0.665-3.492-1.425s-1.195-1.787-1.425-3.492c-0.233-1.733-0.235-4.011-0.235-7.182s0.002-5.449 0.235-7.182c0.229-1.705 0.665-2.732 1.425-3.492z"></path>
</symbol>



</defs>
</svg>
