<svg aria-hidden="true" style="position: absolute; width: 0; height: 0; overflow: hidden;" version="1.1" xmlns="http://www.w3.org/2000/svg" xmlns:xlink="http://www.w3.org/1999/xlink">
<defs>
<symbol id="icon-basket-cart" viewBox="0 0 32 32">
<path fill="#b6d161" style="fill: var(--color1, #b6d161)" d="M0 0h32v32h-32v-32z"></path>
<path fill="#fff" style="fill: var(--color2, #fff)" d="M10.902 13.851h-1.991c-0.129 0-0.246-0.078-0.296-0.197s-0.022-0.257 0.069-0.349l5.476-5.476c0.385-0.386 1.060-0.386 1.447-0 0.194 0.194 0.3 0.452 0.3 0.725s-0.107 0.531-0.3 0.724l-4.48 4.48c-0.060 0.060-0.141 0.094-0.226 0.094v0zM9.684 13.211h1.086l4.387-4.387c0.072-0.072 0.113-0.168 0.113-0.271s-0.040-0.199-0.113-0.272c-0.145-0.146-0.398-0.145-0.542-0.001l-4.93 4.93z"></path>
<path fill="#fff" style="fill: var(--color2, #fff)" d="M23.088 13.851h-1.991c-0.085 0-0.166-0.034-0.226-0.094l-4.481-4.481c-0.399-0.399-0.399-1.048-0-1.447 0.388-0.388 1.062-0.387 1.448-0.001l5.477 5.477c0.092 0.092 0.119 0.229 0.069 0.349s-0.166 0.197-0.296 0.197v0zM21.229 13.211h1.086l-4.93-4.93c-0.144-0.144-0.398-0.145-0.543 0-0.15 0.15-0.15 0.394-0.001 0.543l4.387 4.387z"></path>
<path fill="#fff" style="fill: var(--color2, #fff)" d="M24.96 15.179h-17.92c-0.177 0-0.32-0.143-0.32-0.32v-1.328c0-0.177 0.143-0.32 0.32-0.32h17.92c0.177 0 0.32 0.143 0.32 0.32v1.328c0 0.177-0.143 0.32-0.32 0.32v0zM7.36 14.539h17.28v-0.688h-17.28v0.688z"></path>
<path fill="#fff" style="fill: var(--color2, #fff)" d="M21.818 24.471h-11.636c-0.814 0-1.515-0.608-1.63-1.414l-1.164-8.153c-0.013-0.092 0.014-0.185 0.075-0.255s0.149-0.11 0.242-0.11h16.593c0.093 0 0.181 0.040 0.242 0.11s0.088 0.163 0.075 0.255l-1.165 8.153c-0.115 0.806-0.816 1.414-1.63 1.414v0zM8.073 15.179l1.112 7.787c0.071 0.493 0.499 0.865 0.997 0.865h11.636c0.498 0 0.926-0.372 0.996-0.865l1.113-7.787h-15.855z"></path>
<path fill="#fff" style="fill: var(--color2, #fff)" d="M21.973 17.834h-1.327c-0.177 0-0.32-0.143-0.32-0.32s0.143-0.32 0.32-0.32h1.327c0.177 0 0.32 0.143 0.32 0.32s-0.143 0.32-0.32 0.32v0z"></path>
<path fill="#fff" style="fill: var(--color2, #fff)" d="M19.318 17.834h-1.327c-0.177 0-0.32-0.143-0.32-0.32s0.143-0.32 0.32-0.32h1.327c0.177 0 0.32 0.143 0.32 0.32s-0.143 0.32-0.32 0.32v0z"></path>
<path fill="#fff" style="fill: var(--color2, #fff)" d="M16.664 17.834h-1.328c-0.177 0-0.32-0.143-0.32-0.32s0.143-0.32 0.32-0.32h1.328c0.177 0 0.32 0.143 0.32 0.32s-0.143 0.32-0.32 0.32v0z"></path>
<path fill="#fff" style="fill: var(--color2, #fff)" d="M14.009 17.834h-1.327c-0.177 0-0.32-0.143-0.32-0.32s0.143-0.32 0.32-0.32h1.327c0.177 0 0.32 0.143 0.32 0.32s-0.143 0.32-0.32 0.32v0z"></path>
<path fill="#fff" style="fill: var(--color2, #fff)" d="M11.354 17.834h-1.328c-0.177 0-0.32-0.143-0.32-0.32s0.143-0.32 0.32-0.32h1.328c0.177 0 0.32 0.143 0.32 0.32s-0.143 0.32-0.32 0.32v0z"></path>
<path fill="#fff" style="fill: var(--color2, #fff)" d="M21.973 19.824h-1.327c-0.177 0-0.32-0.143-0.32-0.32s0.143-0.32 0.32-0.32h1.327c0.177 0 0.32 0.143 0.32 0.32s-0.143 0.32-0.32 0.32v0z"></path>
<path fill="#fff" style="fill: var(--color2, #fff)" d="M19.318 19.824h-1.327c-0.177 0-0.32-0.143-0.32-0.32s0.143-0.32 0.32-0.32h1.327c0.177 0 0.32 0.143 0.32 0.32s-0.143 0.32-0.32 0.32v0z"></path>
<path fill="#fff" style="fill: var(--color2, #fff)" d="M16.664 19.824h-1.328c-0.177 0-0.32-0.143-0.32-0.32s0.143-0.32 0.32-0.32h1.328c0.177 0 0.32 0.143 0.32 0.32s-0.143 0.32-0.32 0.32v0z"></path>
<path fill="#fff" style="fill: var(--color2, #fff)" d="M14.009 19.824h-1.327c-0.177 0-0.32-0.143-0.32-0.32s0.143-0.32 0.32-0.32h1.327c0.177 0 0.32 0.143 0.32 0.32s-0.143 0.32-0.32 0.32v0z"></path>
<path fill="#fff" style="fill: var(--color2, #fff)" d="M11.354 19.824h-1.328c-0.177 0-0.32-0.143-0.32-0.32s0.143-0.32 0.32-0.32h1.328c0.177 0 0.32 0.143 0.32 0.32s-0.143 0.32-0.32 0.32v0z"></path>
<path fill="#fff" style="fill: var(--color2, #fff)" d="M21.973 21.816h-1.327c-0.177 0-0.32-0.143-0.32-0.32s0.143-0.32 0.32-0.32h1.327c0.177 0 0.32 0.143 0.32 0.32s-0.143 0.32-0.32 0.32v0z"></path>
<path fill="#fff" style="fill: var(--color2, #fff)" d="M19.318 21.816h-1.327c-0.177 0-0.32-0.143-0.32-0.32s0.143-0.32 0.32-0.32h1.327c0.177 0 0.32 0.143 0.32 0.32s-0.143 0.32-0.32 0.32v0z"></path>
<path fill="#fff" style="fill: var(--color2, #fff)" d="M16.664 21.816h-1.328c-0.177 0-0.32-0.143-0.32-0.32s0.143-0.32 0.32-0.32h1.328c0.177 0 0.32 0.143 0.32 0.32s-0.143 0.32-0.32 0.32v0z"></path>
<path fill="#fff" style="fill: var(--color2, #fff)" d="M14.009 21.816h-1.327c-0.177 0-0.32-0.143-0.32-0.32s0.143-0.32 0.32-0.32h1.327c0.177 0 0.32 0.143 0.32 0.32s-0.143 0.32-0.32 0.32v0z"></path>
<path fill="#fff" style="fill: var(--color2, #fff)" d="M11.354 21.816h-1.328c-0.177 0-0.32-0.143-0.32-0.32s0.143-0.32 0.32-0.32h1.328c0.177 0 0.32 0.143 0.32 0.32s-0.143 0.32-0.32 0.32v0z"></path>
</symbol>
</defs>
</svg>
